<svg width="126" height="48" viewBox="0 0 126 48" fill="none" xmlns="http://www.w3.org/2000/svg">
<path d="M78.2056 40.92C76.899 40.92 75.6456 40.3467 74.4456 39.2C73.2723 38.0533 72.3123 36.3867 71.5656 34.2C70.819 32.04 70.4456 29.4267 70.4456 26.36C70.4456 25.9867 70.4456 25.6 70.4456 25.2C70.4723 24.8 70.499 24.3867 70.5256 23.96C70.259 23.9867 69.9923 24 69.7256 24C69.4856 24 69.259 24 69.0456 24C67.499 24 66.3656 23.8 65.6456 23.4C64.9523 23 64.6056 22.48 64.6056 21.84C64.6056 21.2 64.9123 20.4933 65.5256 19.72C66.1656 18.9467 67.0456 18.16 68.1656 17.36C69.2856 16.56 70.579 15.84 72.0456 15.2C72.659 12.9867 73.459 10.6533 74.4456 8.2C75.4323 5.74667 76.659 3.18667 78.1256 0.519998C78.3123 0.173333 78.5923 0 78.9656 0C79.2056 0 79.419 0.0799998 79.6056 0.239999C79.7923 0.399999 79.8856 0.613332 79.8856 0.879998C79.8856 1.01333 79.8456 1.18666 79.7656 1.4C79.5523 1.82667 79.339 2.26667 79.1256 2.72C78.9123 3.14667 78.699 3.57333 78.4856 4C78.8856 3.92 79.1923 3.88 79.4056 3.88C79.619 3.88 79.8723 3.86667 80.1656 3.84C80.459 3.81333 80.9123 3.76 81.5256 3.68C82.379 3.54667 83.179 3.44 83.9256 3.36C84.699 3.28 85.419 3.24 86.0856 3.24C88.619 3.24 90.4856 3.68 91.6856 4.56C92.8856 5.44 93.4856 6.56 93.4856 7.92C93.4856 9.54667 92.699 11.3333 91.1256 13.28C89.819 14.88 88.179 16.4267 86.2056 17.92C84.259 19.4133 82.059 20.6933 79.6056 21.76C77.179 22.8 74.5923 23.4933 71.8456 23.84C71.739 24.6133 71.659 25.36 71.6056 26.08C71.5523 26.8 71.5256 27.48 71.5256 28.12C71.5256 30.44 71.7923 32.3467 72.3256 33.84C72.8856 35.36 73.5656 36.5467 74.3656 37.4C75.1923 38.2533 76.0056 38.8533 76.8056 39.2C77.6323 39.5467 78.299 39.72 78.8056 39.72C79.2056 39.72 79.4723 39.6533 79.6056 39.52C79.7123 39.3867 79.8323 39.32 79.9656 39.32C80.259 39.32 80.4056 39.52 80.4056 39.92C80.4056 40.24 80.259 40.4533 79.9656 40.56C79.4056 40.8 78.819 40.92 78.2056 40.92ZM71.9656 23.12C74.7656 22.56 77.299 21.7067 79.5656 20.56C81.859 19.4133 83.8856 18.0933 85.6456 16.6C87.4056 15.1067 88.8856 13.5467 90.0856 11.92C90.779 11.0133 91.2723 10.2 91.5656 9.48C91.859 8.73333 92.0056 8.08 92.0056 7.52C92.0056 6.61333 91.6856 5.89333 91.0456 5.36C90.4323 4.8 89.619 4.4 88.6056 4.16C87.5923 3.92 86.499 3.8 85.3256 3.8C84.099 3.8 82.8856 3.90667 81.6856 4.12C80.4856 4.33333 79.419 4.61333 78.4856 4.96C78.299 5.04 78.139 5.05333 78.0056 5C77.2323 6.70667 76.5256 8.34667 75.8856 9.92C75.2723 11.4667 74.7256 12.9467 74.2456 14.36C75.3923 13.9867 76.5923 13.6667 77.8456 13.4C79.099 13.1333 80.3923 12.9733 81.7256 12.92H81.8856C82.1523 12.92 82.2856 12.9733 82.2856 13.08C82.2856 13.16 82.1523 13.2533 81.8856 13.36C81.6456 13.4667 81.2323 13.5333 80.6456 13.56C79.419 13.6133 78.259 13.7733 77.1656 14.04C76.0723 14.28 75.0323 14.5867 74.0456 14.96C73.539 16.5067 73.1123 17.96 72.7656 19.32C72.4456 20.68 72.179 21.9467 71.9656 23.12ZM69.2056 23.44C69.419 23.44 69.6323 23.44 69.8456 23.44C70.0856 23.4133 70.3256 23.3867 70.5656 23.36C70.6723 22.2133 70.8323 21.0267 71.0456 19.8C71.259 18.5467 71.539 17.2533 71.8856 15.92C70.179 16.8 68.819 17.7867 67.8056 18.88C66.7923 19.9467 66.2856 20.8933 66.2856 21.72C66.2856 22.2267 66.5256 22.64 67.0056 22.96C67.4856 23.28 68.219 23.44 69.2056 23.44Z" fill="#829D50"/>
<path d="M92.5347 34C91.6814 34 91.028 33.6 90.5747 32.8C90.1214 32.0267 89.8947 31.1733 89.8947 30.24C89.8947 29.36 90.0414 28.44 90.3347 27.48C90.628 26.52 90.988 25.5733 91.4147 24.64C91.868 23.7067 92.3347 22.8533 92.8147 22.08C92.3347 22.2667 91.8814 22.36 91.4547 22.36C91.2414 22.36 91.0547 22.3333 90.8947 22.28C90.7347 22.2267 90.6014 22.1867 90.4947 22.16C90.3614 22.48 90.1214 23.0133 89.7747 23.76C89.4547 24.5067 89.108 25.2933 88.7347 26.12C88.388 26.92 88.0814 27.6 87.8147 28.16C87.388 29.0667 87.0147 29.52 86.6947 29.52C86.5347 29.52 86.4547 29.4133 86.4547 29.2C86.4547 29.04 86.5214 28.8267 86.6547 28.56C87.268 27.4133 87.8414 26.28 88.3747 25.16C88.9347 24.04 89.4414 22.96 89.8947 21.92C89.8414 21.7867 89.788 21.6133 89.7347 21.4C89.6814 21.16 89.6547 20.9067 89.6547 20.64C89.6547 20.3467 89.6814 20.04 89.7347 19.72C89.8147 19.3733 89.9214 19.04 90.0547 18.72C90.1347 18.5333 90.2814 18.2667 90.4947 17.92C90.708 17.5467 90.948 17.2133 91.2147 16.92C91.4814 16.6 91.7347 16.44 91.9747 16.44C92.428 16.44 92.6547 16.68 92.6547 17.16C92.6547 17.6133 92.508 18.1333 92.2147 18.72C91.948 19.3067 91.668 19.8533 91.3747 20.36C91.0814 20.84 90.9347 21.2 90.9347 21.44C90.9347 21.6533 91.0414 21.76 91.2547 21.76C91.548 21.76 91.908 21.6133 92.3347 21.32C92.788 21 93.148 20.7067 93.4147 20.44C93.548 20.3067 93.7614 20.1067 94.0547 19.84C94.348 19.5467 94.628 19.4 94.8947 19.4C95.1614 19.4 95.3347 19.48 95.4147 19.64C95.5214 19.8 95.5747 19.9867 95.5747 20.2C95.5747 20.44 95.468 20.7467 95.2547 21.12C95.0414 21.4667 94.788 21.8133 94.4947 22.16C94.228 22.5067 94.0014 22.8 93.8147 23.04C93.4414 23.6 93.0147 24.3067 92.5347 25.16C92.0547 26.0133 91.6414 26.9333 91.2947 27.92C90.948 28.88 90.7747 29.8 90.7747 30.68C90.7747 31.2667 90.9214 31.88 91.2147 32.52C91.508 33.16 91.908 33.48 92.4147 33.48C92.868 33.48 93.348 33.24 93.8547 32.76C94.388 32.28 94.8814 31.7067 95.3347 31.04C95.8147 30.3733 96.228 29.7333 96.5747 29.12C96.948 28.5067 97.2014 28.08 97.3347 27.84C97.388 27.7067 97.4814 27.5467 97.6147 27.36C97.748 27.1467 97.908 27.04 98.0947 27.04C98.2547 27.04 98.3347 27.12 98.3347 27.28C98.3347 27.4133 98.2947 27.5733 98.2147 27.76C98.1614 27.92 98.108 28.0667 98.0547 28.2C97.8147 28.76 97.5214 29.3467 97.1747 29.96C96.828 30.5733 96.588 30.9867 96.4547 31.2C96.0814 31.8133 95.5214 32.4267 94.7747 33.04C94.0547 33.68 93.308 34 92.5347 34Z" fill="#829D50"/>
<path d="M101.688 18.64C101.448 18.64 101.275 18.52 101.168 18.28C101.088 18.0133 101.048 17.8267 101.048 17.72C101.048 17.2933 101.168 16.8933 101.408 16.52C101.675 16.12 101.968 15.9067 102.288 15.88H102.408C102.728 15.88 102.941 15.96 103.048 16.12C103.181 16.2533 103.248 16.4267 103.248 16.64C103.248 17.04 103.075 17.48 102.728 17.96C102.381 18.4133 102.035 18.64 101.688 18.64ZM99.6481 32.96C98.7415 32.96 98.1281 32.6133 97.8081 31.92C97.4881 31.2267 97.3281 30.4267 97.3281 29.52C97.3281 28.6133 97.4215 27.6667 97.6081 26.68C97.8215 25.6667 98.0481 24.7467 98.2881 23.92C98.5548 23.0933 98.7548 22.5067 98.8881 22.16C99.1815 21.5467 99.4748 21.0267 99.7681 20.6C100.061 20.1467 100.381 19.92 100.728 19.92C100.968 19.92 101.141 20.0133 101.248 20.2C101.381 20.36 101.448 20.5733 101.448 20.84C101.448 21.3733 101.301 21.92 101.008 22.48C100.715 23.0133 100.448 23.52 100.208 24C99.6748 25.0933 99.2481 26.0667 98.9281 26.92C98.6348 27.7733 98.4881 28.84 98.4881 30.12C98.4881 30.9467 98.5681 31.5467 98.7281 31.92C98.9148 32.2933 99.1681 32.48 99.4881 32.48C99.9148 32.48 100.408 32.24 100.968 31.76C101.528 31.2533 102.101 30.5867 102.688 29.76C103.275 28.9333 103.795 28.04 104.248 27.08C104.541 26.4667 104.768 26.16 104.928 26.16C105.035 26.16 105.088 26.2667 105.088 26.48C105.088 26.7733 104.968 27.2 104.728 27.76C104.515 28.2933 104.248 28.84 103.928 29.4C103.635 29.96 103.355 30.4 103.088 30.72C102.635 31.3067 102.115 31.8267 101.528 32.28C100.941 32.7333 100.315 32.96 99.6481 32.96Z" fill="#829D50"/>
<path d="M112.531 32.52C112.184 32.52 111.877 32.3067 111.611 31.88C111.344 31.4267 111.211 30.5733 111.211 29.32C111.211 28.3333 111.291 27.2533 111.451 26.08C111.611 24.88 111.784 23.6933 111.971 22.52C112.184 21.3467 112.371 20.3067 112.531 19.4C112.691 18.4667 112.771 17.7867 112.771 17.36C112.771 16.6133 112.544 16.24 112.091 16.24C111.664 16.24 111.224 16.4533 110.771 16.88C110.344 17.3067 109.931 17.8267 109.531 18.44C109.157 19.0533 108.824 19.6533 108.531 20.24C108.264 20.8 108.091 21.2133 108.011 21.48C107.637 22.52 107.371 23.56 107.211 24.6C107.051 25.6133 106.971 26.6667 106.971 27.76C106.971 28.2133 106.984 28.68 107.011 29.16C107.064 29.64 107.104 30.1333 107.131 30.64C107.184 30.9067 107.104 31.24 106.891 31.64C106.704 32.0133 106.477 32.2 106.211 32.2C106.024 32.2 105.864 32.08 105.731 31.84C105.597 31.6 105.504 31.3867 105.451 31.2C105.344 30.88 105.264 30.5467 105.211 30.2C105.157 29.8267 105.104 29.5067 105.051 29.24C104.864 28.1467 104.691 27.04 104.531 25.92C104.371 24.7733 104.144 23.6667 103.851 22.6C103.771 22.3067 103.664 22 103.531 21.68C103.424 21.3333 103.251 21.0533 103.011 20.84C102.957 20.7867 102.877 20.7333 102.771 20.68C102.664 20.6 102.611 20.5333 102.611 20.48C102.611 20.3733 102.757 20.32 103.051 20.32C103.371 20.32 103.691 20.48 104.011 20.8C104.331 21.12 104.624 21.5467 104.891 22.08C105.211 22.7467 105.477 23.4533 105.691 24.2C105.931 24.9467 106.117 25.5467 106.251 26C106.411 25.04 106.584 24.1867 106.771 23.44C106.957 22.8 107.211 22.04 107.531 21.16C107.851 20.2533 108.251 19.3733 108.731 18.52C109.211 17.64 109.784 16.92 110.451 16.36C111.117 15.7733 111.891 15.48 112.771 15.48C114.051 15.48 114.691 16.2267 114.691 17.72C114.691 18.4933 114.557 19.3467 114.291 20.28C114.024 21.1867 113.731 22.0267 113.411 22.8C113.117 23.5733 112.917 24.1067 112.811 24.4C112.677 24.7733 112.531 25.28 112.371 25.92C112.237 26.56 112.117 27.2267 112.011 27.92C111.931 28.6133 111.891 29.2533 111.891 29.84C111.891 30.3467 111.944 30.7733 112.051 31.12C112.184 31.44 112.384 31.6 112.651 31.6C112.917 31.6 113.157 31.48 113.371 31.24C113.584 30.9733 113.757 30.7333 113.891 30.52C114.051 30.3067 114.131 30.2667 114.131 30.4C114.184 30.8 114.037 31.2533 113.691 31.76C113.371 32.2667 112.984 32.52 112.531 32.52Z" fill="#829D50"/>
<path d="M118.976 38.4C118.709 38.4 118.429 38.2267 118.136 37.88C117.869 37.56 117.616 37.1067 117.376 36.52C116.976 35.56 116.696 34.5467 116.536 33.48C116.376 32.44 116.296 31.3867 116.296 30.32C116.296 29.1467 116.376 28 116.536 26.88C116.696 25.76 116.869 24.7467 117.056 23.84C117.189 23.2 117.349 22.52 117.536 21.8C117.723 21.08 117.896 20.5067 118.056 20.08C117.896 20.1067 117.643 20.2 117.296 20.36C116.949 20.52 116.589 20.68 116.216 20.84C115.869 21 115.563 21.08 115.296 21.08C114.896 21.08 114.696 20.8533 114.696 20.4C114.696 20.16 114.776 19.9467 114.936 19.76C115.123 19.5733 115.349 19.4267 115.616 19.32C116.149 19.08 116.736 18.9067 117.376 18.8C118.016 18.6667 118.443 18.5333 118.656 18.4L119.696 15.76C119.803 15.4933 119.989 15.0667 120.256 14.48C120.549 13.8667 120.883 13.2133 121.256 12.52C121.656 11.8267 122.043 11.2 122.416 10.64C122.709 10.2133 122.989 9.88 123.256 9.64C123.523 9.37333 123.816 9.24 124.136 9.24C124.616 9.24 124.856 9.42667 124.856 9.8C124.856 10.0133 124.763 10.3333 124.576 10.76C124.416 11.1867 124.109 11.7467 123.656 12.44C123.149 13.24 122.629 14.04 122.096 14.84C121.589 15.6133 121.149 16.4267 120.776 17.28C120.749 17.3867 120.683 17.56 120.576 17.8C120.496 18.0133 120.429 18.1467 120.376 18.2L121.176 18.08C121.389 18.0533 121.629 18.04 121.896 18.04C122.163 18.0133 122.456 18 122.776 18C123.229 18 123.656 18.0267 124.056 18.08C124.483 18.1067 124.829 18.1733 125.096 18.28C125.229 18.3333 125.349 18.4 125.456 18.48C125.589 18.5333 125.656 18.5867 125.656 18.64C125.656 18.7467 125.309 18.8 124.616 18.8C124.216 18.8 123.643 18.8667 122.896 19C122.176 19.1333 121.349 19.3467 120.416 19.64C119.963 19.7733 119.656 19.96 119.496 20.2C119.336 20.44 119.123 21.0133 118.856 21.92C118.456 23.36 118.136 24.7467 117.896 26.08C117.656 27.3867 117.469 28.72 117.336 30.08C117.309 30.3467 117.283 30.6267 117.256 30.92C117.256 31.2133 117.256 31.5333 117.256 31.88C117.256 32.7867 117.336 33.7333 117.496 34.72C117.683 35.7067 117.949 36.56 118.296 37.28C118.376 37.44 118.456 37.5867 118.536 37.72C118.643 37.8533 118.763 37.9467 118.896 38C119.083 38.08 119.176 38.1733 119.176 38.28C119.176 38.36 119.109 38.4 118.976 38.4Z" fill="#829D50"/>
<path d="M11.16 34.64C9.48 34.64 7.90667 34.2933 6.44 33.6C4.97333 32.9067 3.78667 31.7867 2.88 30.24C2 28.6933 1.56 26.6533 1.56 24.12C1.56 23.56 1.57333 22.9867 1.6 22.4C1.65333 21.7867 1.73333 21.16 1.84 20.52C1.65333 20.4933 1.46667 20.4933 1.28 20.52C1.09333 20.52 0.933333 20.52 0.8 20.52C0.56 20.52 0.373333 20.4667 0.24 20.36C0.106667 20.2533 0.0266667 20.0267 0 19.68C0 19.3067 0.08 18.96 0.24 18.64C0.426667 18.32 0.613333 18.2667 0.8 18.48C1.09333 18.72 1.62667 18.8667 2.4 18.92C2.93333 17.0533 3.73333 15.3333 4.8 13.76C5.89333 12.1867 7.13333 10.7733 8.52 9.52C9.93333 8.24 11.3867 7.16 12.88 6.28C14.4 5.37333 15.8533 4.69333 17.24 4.24C18.6267 3.76 19.8533 3.52 20.92 3.52C21.8267 3.52 22.5467 3.70667 23.08 4.08C23.64 4.45333 23.92 5.04 23.92 5.84C23.92 6.18667 23.8667 6.53333 23.76 6.88C23.5467 7.78667 23.2 8.50667 22.72 9.04C22.2667 9.57333 21.9333 9.84 21.72 9.84C21.5867 9.84 21.52 9.77333 21.52 9.64C21.52 9.50667 21.6267 9.22667 21.84 8.8C22.24 8.08 22.44 7.45333 22.44 6.92C22.44 6.25333 22.1733 5.76 21.64 5.44C21.1067 5.09333 20.4 4.92 19.52 4.92C18.4 4.92 17.1067 5.2 15.64 5.76C14.1733 6.32 12.68 7.17333 11.16 8.32C9.64 9.44 8.24 10.88 6.96 12.64C5.70667 14.3733 4.73333 16.44 4.04 18.84C4.54667 18.7867 5.06667 18.7333 5.6 18.68C6.13333 18.6 6.61333 18.5067 7.04 18.4C10.56 17.6267 13.2133 17.08 15 16.76C16.8133 16.4133 17.9467 16.24 18.4 16.24C18.8 16.24 18.7733 16.3333 18.32 16.52C17.8667 16.7067 17.0933 16.9733 16 17.32C14.9333 17.64 13.6267 18 12.08 18.4C10.5333 18.7733 8.85333 19.16 7.04 19.56C6.58667 19.6667 6.05333 19.8 5.44 19.96C4.85333 20.12 4.25333 20.2667 3.64 20.4C3.48 21.5467 3.4 22.6267 3.4 23.64C3.4 26.04 3.8 27.9867 4.6 29.48C5.4 30.9467 6.45333 32.0133 7.76 32.68C9.06667 33.3733 10.48 33.72 12 33.72C13.5467 33.72 15.08 33.4133 16.6 32.8C18.1467 32.1867 19.5467 31.3333 20.8 30.24C22.0533 29.12 23 27.8267 23.64 26.36C23.88 25.8533 24.0933 25.6 24.28 25.6C24.4133 25.6 24.48 25.7067 24.48 25.92C24.48 26.0533 24.44 26.24 24.36 26.48C23.96 27.6533 23.3067 28.7467 22.4 29.76C21.4933 30.7467 20.4267 31.6 19.2 32.32C17.9733 33.0667 16.6667 33.64 15.28 34.04C13.8933 34.44 12.52 34.64 11.16 34.64Z" fill="#1C1C1C"/>
<path d="M24.2787 31.68C23.7987 31.68 23.4521 31.48 23.2388 31.08C23.0254 30.6533 22.9188 30.16 22.9188 29.6C22.9188 28.88 23.0387 28.04 23.2787 27.08C23.5454 26.12 23.8921 25.1333 24.3188 24.12C24.7454 23.08 25.2254 22.1333 25.7588 21.28C26.3188 20.4 26.9054 19.6933 27.5187 19.16C28.1321 18.6 28.7321 18.32 29.3188 18.32C29.8521 18.32 30.3054 18.56 30.6788 19.04C31.0788 19.4933 31.2788 20.0133 31.2788 20.6C31.2788 20.9467 31.2254 21.24 31.1187 21.48C31.0121 21.6933 30.8921 21.8 30.7588 21.8C30.6521 21.8 30.5588 21.72 30.4788 21.56C30.2121 20.9467 29.9188 20.5067 29.5988 20.24C29.3054 19.9733 28.9988 19.84 28.6788 19.84C28.1454 19.84 27.6121 20.1467 27.0788 20.76C26.5721 21.3467 26.1588 22.0267 25.8388 22.8C25.5721 23.3867 25.3188 24.0933 25.0788 24.92C24.8654 25.72 24.6787 26.52 24.5187 27.32C24.3854 28.0933 24.3188 28.7333 24.3188 29.24C24.3188 30.1467 24.5321 30.6 24.9587 30.6C25.4921 30.6 26.1721 30.0133 26.9988 28.84C27.6121 27.9867 28.1588 27 28.6388 25.88C29.1454 24.76 29.5721 23.7867 29.9188 22.96C30.0521 22.6933 30.1988 22.52 30.3588 22.44C30.5188 22.36 30.6654 22.32 30.7987 22.32C31.1188 22.32 31.3188 22.4533 31.3988 22.72C31.5054 22.9867 31.5588 23.2133 31.5588 23.4C31.5588 24.0933 31.4921 24.72 31.3587 25.28C31.2254 25.8133 31.1588 26.4667 31.1588 27.24C31.1588 27.8 31.1988 28.32 31.2788 28.8C31.3854 29.2533 31.5587 29.48 31.7987 29.48C32.0921 29.48 32.4654 29.1067 32.9188 28.36C33.0254 28.1467 33.1854 28.04 33.3988 28.04C33.6388 28.04 33.7588 28.16 33.7588 28.4C33.7588 28.7467 33.5187 29.12 33.0387 29.52C32.5588 29.8933 32.0788 30.08 31.5988 30.08C30.9588 30.08 30.5054 29.8133 30.2388 29.28C29.7854 28.4 29.5588 27.6133 29.5588 26.92C29.5588 26.2 29.5454 25.7067 29.5187 25.44C29.3854 25.76 29.1321 26.2667 28.7588 26.96C28.3854 27.6267 27.9454 28.3333 27.4387 29.08C26.9321 29.8 26.3988 30.4133 25.8388 30.92C25.2788 31.4267 24.7587 31.68 24.2787 31.68Z" fill="#1C1C1C"/>
<path d="M34.2666 33.36C33.7599 33.36 33.4132 33.2133 33.2266 32.92C33.1199 32.76 33.0666 32.5867 33.0666 32.4C33.0666 32.1867 33.1599 31.9333 33.3466 31.64C33.5332 31.3467 33.8666 31.08 34.3466 30.84C34.3999 30.8133 34.5999 30.6933 34.9466 30.48C35.3199 30.2667 35.5466 30.1467 35.6266 30.12C35.4666 29.5333 35.1866 28.9467 34.7866 28.36C34.3866 27.7467 34.0266 27.0533 33.7066 26.28C33.3866 25.5067 33.2532 24.5467 33.3066 23.4C33.3599 22.3067 33.6532 21.36 34.1866 20.56C34.7199 19.76 35.3999 19.1067 36.2266 18.6C37.0799 18.0933 37.9599 17.7467 38.8666 17.56C39.0799 17.5067 39.3066 17.4667 39.5466 17.44C39.7866 17.4133 40.0266 17.4 40.2666 17.4C40.9332 17.4 41.5199 17.48 42.0266 17.64C42.5599 17.8 43.0132 18.0667 43.3866 18.44C43.7866 18.8133 43.9866 19.2267 43.9866 19.68C43.9866 19.9733 43.8932 20.2667 43.7066 20.56C43.6532 20.6667 43.5732 20.7733 43.4666 20.88C43.3599 20.9867 43.2266 21.04 43.0666 21.04C42.9599 21.04 42.9066 20.96 42.9066 20.8C42.9066 20.6667 42.9332 20.4933 42.9866 20.28C43.0666 20.0667 43.1199 19.9333 43.1466 19.88C43.1732 19.8267 43.1866 19.7333 43.1866 19.6C43.1866 19.3067 43.1066 19.0667 42.9466 18.88C42.7599 18.64 42.4666 18.4933 42.0666 18.44C41.6932 18.3867 41.3466 18.36 41.0266 18.36C40.0932 18.36 39.1732 18.6133 38.2666 19.12C37.3599 19.6267 36.5599 20.28 35.8666 21.08C35.1999 21.8533 34.7332 22.68 34.4666 23.56C34.3866 23.8 34.3332 24.04 34.3066 24.28C34.2799 24.4933 34.2666 24.7067 34.2666 24.92C34.2666 25.8533 34.4799 26.7467 34.9066 27.6C35.3332 28.4533 35.7066 29.24 36.0266 29.96C36.7732 29.56 37.4399 29.28 38.0266 29.12C38.1066 29.0933 38.1732 29.08 38.2266 29.08C38.3066 29.08 38.3599 29.08 38.3866 29.08C38.5199 29.08 38.5866 29.12 38.5866 29.2C38.5866 29.3333 38.4132 29.4667 38.0666 29.6C37.9866 29.6267 37.7866 29.7067 37.4666 29.84C37.1466 29.9733 36.7599 30.16 36.3066 30.4C36.4399 30.7467 36.5066 31.08 36.5066 31.4C36.5066 31.72 36.4266 32.0267 36.2666 32.32C36.1066 32.6133 35.8266 32.8533 35.4266 33.04C35.0266 33.2533 34.6399 33.36 34.2666 33.36ZM34.3866 32.28C34.4132 32.4667 34.5332 32.5067 34.7466 32.4C34.9866 32.2933 35.2266 32.1067 35.4666 31.84C35.7066 31.5733 35.8266 31.3067 35.8266 31.04C35.8266 30.9867 35.8266 30.9333 35.8266 30.88C35.8532 30.8 35.8532 30.72 35.8266 30.64C35.4266 30.88 35.0799 31.1467 34.7866 31.44C34.4932 31.7067 34.3599 31.9867 34.3866 32.28Z" fill="#1C1C1C"/>
<path d="M43.4731 47.72C42.4331 47.72 41.5931 47.44 40.9531 46.88C40.3131 46.3467 39.9931 45.6267 39.9931 44.72C39.9931 43.92 40.2198 43.12 40.6731 42.32C41.0998 41.5467 41.6331 40.8 42.2731 40.08C42.9398 39.3867 43.6065 38.7733 44.2731 38.24C45.4465 37.3067 46.8331 36.4267 48.4331 35.6C50.0598 34.7733 51.8865 34.1467 53.9131 33.72C53.9398 33.4267 53.9531 33.12 53.9531 32.8C53.9531 32.5067 53.9531 32.2133 53.9531 31.92C53.9531 29.76 53.8065 27.8 53.5131 26.04C53.2198 24.2533 52.8865 22.72 52.5131 21.44C51.4465 24.08 50.4998 26.28 49.6731 28.04C48.8465 29.7733 48.3931 31.2267 48.3131 32.4C48.2865 32.5867 48.1665 32.7867 47.9531 33C47.7665 33.24 47.5531 33.36 47.3131 33.36C47.1531 33.36 46.9931 33.2667 46.8331 33.08C46.6998 32.92 46.6065 32.6267 46.5531 32.2C46.5531 32.0933 46.5398 31.9467 46.5131 31.76C46.5131 31.5733 46.5131 31.24 46.5131 30.76C46.5131 30.28 46.5131 29.56 46.5131 28.6C46.5131 27.7467 46.4865 26.88 46.4331 26C46.4065 25.0933 46.3131 24.2533 46.1531 23.48C45.9931 22.7067 45.7531 22.08 45.4331 21.6C45.1398 21.12 44.7265 20.88 44.1931 20.88C43.7665 20.88 43.3665 21.04 42.9931 21.36C42.6465 21.68 42.3531 22 42.1131 22.32C41.8731 22.6133 41.6865 22.76 41.5531 22.76C41.4465 22.76 41.3931 22.72 41.3931 22.64C41.3931 22.5867 41.4331 22.5067 41.5131 22.4C41.5665 22.2667 41.6198 22.16 41.6731 22.08C41.9131 21.7333 42.2198 21.3867 42.5931 21.04C42.9931 20.6933 43.4065 20.4 43.8331 20.16C44.2865 19.8933 44.6865 19.76 45.0331 19.76C45.7531 19.76 46.3131 20.1333 46.7131 20.88C47.1131 21.6 47.3931 22.52 47.5531 23.64C47.7398 24.76 47.8331 25.9067 47.8331 27.08C47.8331 27.5867 47.8065 28.2 47.7531 28.92C47.6998 29.64 47.6331 30.2533 47.5531 30.76C48.0865 29.7733 48.7665 28.4 49.5931 26.64C50.4198 24.88 51.3265 22.8933 52.3131 20.68L51.9531 19.64V19.52C51.9531 19.2533 52.0331 19.0533 52.1931 18.92C52.3798 18.7867 52.5665 18.72 52.7531 18.72C52.9131 18.72 53.0731 18.76 53.2331 18.84C53.3931 18.92 53.4998 19.04 53.5531 19.2C53.8731 19.92 54.1398 20.9067 54.3531 22.16C54.5931 23.4133 54.7665 24.7733 54.8731 26.24C55.0065 27.68 55.0731 29.1067 55.0731 30.52C55.0731 31.5867 55.0331 32.5867 54.9531 33.52C55.6198 33.3867 56.3265 33.28 57.0731 33.2C57.8465 33.12 58.5131 33.08 59.0731 33.08C59.4198 33.08 59.5931 33.1333 59.5931 33.24C59.5931 33.4533 59.3131 33.5867 58.7531 33.64C58.1131 33.6933 57.4598 33.76 56.7931 33.84C56.1531 33.9467 55.4998 34.08 54.8331 34.24C54.2731 37.3067 53.3931 39.76 52.1931 41.6C51.0198 43.4667 49.8065 44.8667 48.5531 45.8C47.6465 46.4667 46.7531 46.9467 45.8731 47.24C45.0198 47.56 44.2198 47.72 43.4731 47.72ZM43.1531 46.88C43.6065 46.88 44.1265 46.7867 44.7131 46.6C45.3265 46.4133 45.9665 46.12 46.6331 45.72C48.7665 44.4667 50.4198 42.88 51.5931 40.96C52.7665 39.0667 53.5131 36.9067 53.8331 34.48C52.2598 34.9067 50.6731 35.52 49.0731 36.32C47.4998 37.1467 46.0598 38.1067 44.7531 39.2C44.1665 39.7067 43.5798 40.28 42.9931 40.92C42.4331 41.56 41.9665 42.2133 41.5931 42.88C41.2198 43.5733 41.0331 44.24 41.0331 44.88C41.0331 45.4933 41.2198 45.9733 41.5931 46.32C41.9665 46.6933 42.4865 46.88 43.1531 46.88Z" fill="#1C1C1C"/>
</svg>
