<svg width="127" height="48" viewBox="0 0 127 48" fill="none" xmlns="http://www.w3.org/2000/svg">
<path d="M79.0865 40.92C77.7798 40.92 76.5265 40.3467 75.3265 39.2C74.1532 38.0533 73.1932 36.3867 72.4465 34.2C71.6998 32.04 71.3265 29.4267 71.3265 26.36C71.3265 25.9867 71.3265 25.6 71.3265 25.2C71.3532 24.8 71.3798 24.3867 71.4065 23.96C71.1398 23.9867 70.8732 24 70.6065 24C70.3665 24 70.1398 24 69.9265 24C68.3798 24 67.2465 23.8 66.5265 23.4C65.8332 23 65.4865 22.48 65.4865 21.84C65.4865 21.2 65.7932 20.4933 66.4065 19.72C67.0465 18.9467 67.9265 18.16 69.0465 17.36C70.1665 16.56 71.4598 15.84 72.9265 15.2C73.5398 12.9867 74.3398 10.6533 75.3265 8.2C76.3132 5.74667 77.5398 3.18667 79.0065 0.519998C79.1932 0.173333 79.4732 0 79.8465 0C80.0865 0 80.2998 0.0799998 80.4865 0.239999C80.6732 0.399999 80.7665 0.613332 80.7665 0.879998C80.7665 1.01333 80.7265 1.18666 80.6465 1.4C80.4332 1.82667 80.2198 2.26667 80.0065 2.72C79.7932 3.14667 79.5798 3.57333 79.3665 4C79.7665 3.92 80.0732 3.88 80.2865 3.88C80.4998 3.88 80.7532 3.86667 81.0465 3.84C81.3398 3.81333 81.7932 3.76 82.4065 3.68C83.2598 3.54667 84.0598 3.44 84.8065 3.36C85.5798 3.28 86.2998 3.24 86.9665 3.24C89.4998 3.24 91.3665 3.68 92.5665 4.56C93.7665 5.44 94.3665 6.56 94.3665 7.92C94.3665 9.54667 93.5798 11.3333 92.0065 13.28C90.6998 14.88 89.0598 16.4267 87.0865 17.92C85.1398 19.4133 82.9398 20.6933 80.4865 21.76C78.0598 22.8 75.4732 23.4933 72.7265 23.84C72.6198 24.6133 72.5398 25.36 72.4865 26.08C72.4332 26.8 72.4065 27.48 72.4065 28.12C72.4065 30.44 72.6732 32.3467 73.2065 33.84C73.7665 35.36 74.4465 36.5467 75.2465 37.4C76.0732 38.2533 76.8865 38.8533 77.6865 39.2C78.5132 39.5467 79.1798 39.72 79.6865 39.72C80.0865 39.72 80.3532 39.6533 80.4865 39.52C80.5932 39.3867 80.7132 39.32 80.8465 39.32C81.1398 39.32 81.2865 39.52 81.2865 39.92C81.2865 40.24 81.1398 40.4533 80.8465 40.56C80.2865 40.8 79.6998 40.92 79.0865 40.92ZM72.8465 23.12C75.6465 22.56 78.1798 21.7067 80.4465 20.56C82.7398 19.4133 84.7665 18.0933 86.5265 16.6C88.2865 15.1067 89.7665 13.5467 90.9665 11.92C91.6598 11.0133 92.1532 10.2 92.4465 9.48C92.7398 8.73333 92.8865 8.08 92.8865 7.52C92.8865 6.61333 92.5665 5.89333 91.9265 5.36C91.3132 4.8 90.4998 4.4 89.4865 4.16C88.4732 3.92 87.3798 3.8 86.2065 3.8C84.9798 3.8 83.7665 3.90667 82.5665 4.12C81.3665 4.33333 80.2998 4.61333 79.3665 4.96C79.1798 5.04 79.0198 5.05333 78.8865 5C78.1132 6.70667 77.4065 8.34667 76.7665 9.92C76.1532 11.4667 75.6065 12.9467 75.1265 14.36C76.2732 13.9867 77.4732 13.6667 78.7265 13.4C79.9798 13.1333 81.2732 12.9733 82.6065 12.92H82.7665C83.0332 12.92 83.1665 12.9733 83.1665 13.08C83.1665 13.16 83.0332 13.2533 82.7665 13.36C82.5265 13.4667 82.1132 13.5333 81.5265 13.56C80.2998 13.6133 79.1398 13.7733 78.0465 14.04C76.9532 14.28 75.9132 14.5867 74.9265 14.96C74.4198 16.5067 73.9932 17.96 73.6465 19.32C73.3265 20.68 73.0598 21.9467 72.8465 23.12ZM70.0865 23.44C70.2998 23.44 70.5132 23.44 70.7265 23.44C70.9665 23.4133 71.2065 23.3867 71.4465 23.36C71.5532 22.2133 71.7132 21.0267 71.9265 19.8C72.1398 18.5467 72.4198 17.2533 72.7665 15.92C71.0598 16.8 69.6998 17.7867 68.6865 18.88C67.6732 19.9467 67.1665 20.8933 67.1665 21.72C67.1665 22.2267 67.4065 22.64 67.8865 22.96C68.3665 23.28 69.0998 23.44 70.0865 23.44Z" fill="white"/>
<path d="M93.4156 34C92.5622 34 91.9089 33.6 91.4556 32.8C91.0022 32.0267 90.7756 31.1733 90.7756 30.24C90.7756 29.36 90.9222 28.44 91.2156 27.48C91.5089 26.52 91.8689 25.5733 92.2956 24.64C92.7489 23.7067 93.2156 22.8533 93.6956 22.08C93.2156 22.2667 92.7622 22.36 92.3356 22.36C92.1222 22.36 91.9356 22.3333 91.7756 22.28C91.6156 22.2267 91.4822 22.1867 91.3756 22.16C91.2422 22.48 91.0022 23.0133 90.6556 23.76C90.3356 24.5067 89.9889 25.2933 89.6156 26.12C89.2689 26.92 88.9622 27.6 88.6956 28.16C88.2689 29.0667 87.8956 29.52 87.5756 29.52C87.4156 29.52 87.3356 29.4133 87.3356 29.2C87.3356 29.04 87.4022 28.8267 87.5356 28.56C88.1489 27.4133 88.7222 26.28 89.2556 25.16C89.8156 24.04 90.3222 22.96 90.7756 21.92C90.7222 21.7867 90.6689 21.6133 90.6156 21.4C90.5622 21.16 90.5356 20.9067 90.5356 20.64C90.5356 20.3467 90.5622 20.04 90.6156 19.72C90.6956 19.3733 90.8022 19.04 90.9356 18.72C91.0156 18.5333 91.1622 18.2667 91.3756 17.92C91.5889 17.5467 91.8289 17.2133 92.0956 16.92C92.3622 16.6 92.6156 16.44 92.8556 16.44C93.3089 16.44 93.5356 16.68 93.5356 17.16C93.5356 17.6133 93.3889 18.1333 93.0956 18.72C92.8289 19.3067 92.5489 19.8533 92.2556 20.36C91.9622 20.84 91.8156 21.2 91.8156 21.44C91.8156 21.6533 91.9222 21.76 92.1356 21.76C92.4289 21.76 92.7889 21.6133 93.2156 21.32C93.6689 21 94.0289 20.7067 94.2956 20.44C94.4289 20.3067 94.6422 20.1067 94.9356 19.84C95.2289 19.5467 95.5089 19.4 95.7756 19.4C96.0422 19.4 96.2156 19.48 96.2956 19.64C96.4022 19.8 96.4556 19.9867 96.4556 20.2C96.4556 20.44 96.3489 20.7467 96.1356 21.12C95.9222 21.4667 95.6689 21.8133 95.3756 22.16C95.1089 22.5067 94.8822 22.8 94.6956 23.04C94.3222 23.6 93.8956 24.3067 93.4156 25.16C92.9356 26.0133 92.5222 26.9333 92.1756 27.92C91.8289 28.88 91.6556 29.8 91.6556 30.68C91.6556 31.2667 91.8022 31.88 92.0956 32.52C92.3889 33.16 92.7889 33.48 93.2956 33.48C93.7489 33.48 94.2289 33.24 94.7356 32.76C95.2689 32.28 95.7622 31.7067 96.2156 31.04C96.6956 30.3733 97.1089 29.7333 97.4556 29.12C97.8289 28.5067 98.0822 28.08 98.2156 27.84C98.2689 27.7067 98.3622 27.5467 98.4956 27.36C98.6289 27.1467 98.7889 27.04 98.9756 27.04C99.1356 27.04 99.2156 27.12 99.2156 27.28C99.2156 27.4133 99.1756 27.5733 99.0956 27.76C99.0422 27.92 98.9889 28.0667 98.9356 28.2C98.6956 28.76 98.4022 29.3467 98.0556 29.96C97.7089 30.5733 97.4689 30.9867 97.3356 31.2C96.9622 31.8133 96.4022 32.4267 95.6556 33.04C94.9356 33.68 94.1889 34 93.4156 34Z" fill="white"/>
<path d="M102.569 18.64C102.329 18.64 102.156 18.52 102.049 18.28C101.969 18.0133 101.929 17.8267 101.929 17.72C101.929 17.2933 102.049 16.8933 102.289 16.52C102.556 16.12 102.849 15.9067 103.169 15.88H103.289C103.609 15.88 103.822 15.96 103.929 16.12C104.062 16.2533 104.129 16.4267 104.129 16.64C104.129 17.04 103.956 17.48 103.609 17.96C103.262 18.4133 102.916 18.64 102.569 18.64ZM100.529 32.96C99.6223 32.96 99.009 32.6133 98.689 31.92C98.369 31.2267 98.209 30.4267 98.209 29.52C98.209 28.6133 98.3023 27.6667 98.489 26.68C98.7023 25.6667 98.929 24.7467 99.169 23.92C99.4357 23.0933 99.6357 22.5067 99.769 22.16C100.062 21.5467 100.356 21.0267 100.649 20.6C100.942 20.1467 101.262 19.92 101.609 19.92C101.849 19.92 102.022 20.0133 102.129 20.2C102.262 20.36 102.329 20.5733 102.329 20.84C102.329 21.3733 102.182 21.92 101.889 22.48C101.596 23.0133 101.329 23.52 101.089 24C100.556 25.0933 100.129 26.0667 99.809 26.92C99.5157 27.7733 99.369 28.84 99.369 30.12C99.369 30.9467 99.449 31.5467 99.609 31.92C99.7957 32.2933 100.049 32.48 100.369 32.48C100.796 32.48 101.289 32.24 101.849 31.76C102.409 31.2533 102.982 30.5867 103.569 29.76C104.156 28.9333 104.676 28.04 105.129 27.08C105.422 26.4667 105.649 26.16 105.809 26.16C105.916 26.16 105.969 26.2667 105.969 26.48C105.969 26.7733 105.849 27.2 105.609 27.76C105.396 28.2933 105.129 28.84 104.809 29.4C104.516 29.96 104.236 30.4 103.969 30.72C103.516 31.3067 102.996 31.8267 102.409 32.28C101.822 32.7333 101.196 32.96 100.529 32.96Z" fill="white"/>
<path d="M113.411 32.52C113.065 32.52 112.758 32.3067 112.491 31.88C112.225 31.4267 112.091 30.5733 112.091 29.32C112.091 28.3333 112.171 27.2533 112.331 26.08C112.491 24.88 112.665 23.6933 112.851 22.52C113.065 21.3467 113.251 20.3067 113.411 19.4C113.571 18.4667 113.651 17.7867 113.651 17.36C113.651 16.6133 113.425 16.24 112.971 16.24C112.545 16.24 112.105 16.4533 111.651 16.88C111.225 17.3067 110.811 17.8267 110.411 18.44C110.038 19.0533 109.705 19.6533 109.411 20.24C109.145 20.8 108.971 21.2133 108.891 21.48C108.518 22.52 108.251 23.56 108.091 24.6C107.931 25.6133 107.851 26.6667 107.851 27.76C107.851 28.2133 107.865 28.68 107.891 29.16C107.945 29.64 107.985 30.1333 108.011 30.64C108.065 30.9067 107.985 31.24 107.771 31.64C107.585 32.0133 107.358 32.2 107.091 32.2C106.905 32.2 106.745 32.08 106.611 31.84C106.478 31.6 106.385 31.3867 106.331 31.2C106.225 30.88 106.145 30.5467 106.091 30.2C106.038 29.8267 105.985 29.5067 105.931 29.24C105.745 28.1467 105.571 27.04 105.411 25.92C105.251 24.7733 105.025 23.6667 104.731 22.6C104.651 22.3067 104.545 22 104.411 21.68C104.305 21.3333 104.131 21.0533 103.891 20.84C103.838 20.7867 103.758 20.7333 103.651 20.68C103.545 20.6 103.491 20.5333 103.491 20.48C103.491 20.3733 103.638 20.32 103.931 20.32C104.251 20.32 104.571 20.48 104.891 20.8C105.211 21.12 105.505 21.5467 105.771 22.08C106.091 22.7467 106.358 23.4533 106.571 24.2C106.811 24.9467 106.998 25.5467 107.131 26C107.291 25.04 107.465 24.1867 107.651 23.44C107.838 22.8 108.091 22.04 108.411 21.16C108.731 20.2533 109.131 19.3733 109.611 18.52C110.091 17.64 110.665 16.92 111.331 16.36C111.998 15.7733 112.771 15.48 113.651 15.48C114.931 15.48 115.571 16.2267 115.571 17.72C115.571 18.4933 115.438 19.3467 115.171 20.28C114.905 21.1867 114.611 22.0267 114.291 22.8C113.998 23.5733 113.798 24.1067 113.691 24.4C113.558 24.7733 113.411 25.28 113.251 25.92C113.118 26.56 112.998 27.2267 112.891 27.92C112.811 28.6133 112.771 29.2533 112.771 29.84C112.771 30.3467 112.825 30.7733 112.931 31.12C113.065 31.44 113.265 31.6 113.531 31.6C113.798 31.6 114.038 31.48 114.251 31.24C114.465 30.9733 114.638 30.7333 114.771 30.52C114.931 30.3067 115.011 30.2667 115.011 30.4C115.065 30.8 114.918 31.2533 114.571 31.76C114.251 32.2667 113.865 32.52 113.411 32.52Z" fill="white"/>
<path d="M119.857 38.4C119.59 38.4 119.31 38.2267 119.017 37.88C118.75 37.56 118.497 37.1067 118.257 36.52C117.857 35.56 117.577 34.5467 117.417 33.48C117.257 32.44 117.177 31.3867 117.177 30.32C117.177 29.1467 117.257 28 117.417 26.88C117.577 25.76 117.75 24.7467 117.937 23.84C118.07 23.2 118.23 22.52 118.417 21.8C118.603 21.08 118.777 20.5067 118.937 20.08C118.777 20.1067 118.523 20.2 118.177 20.36C117.83 20.52 117.47 20.68 117.097 20.84C116.75 21 116.443 21.08 116.177 21.08C115.777 21.08 115.577 20.8533 115.577 20.4C115.577 20.16 115.657 19.9467 115.817 19.76C116.003 19.5733 116.23 19.4267 116.497 19.32C117.03 19.08 117.617 18.9067 118.257 18.8C118.897 18.6667 119.323 18.5333 119.537 18.4L120.577 15.76C120.683 15.4933 120.87 15.0667 121.137 14.48C121.43 13.8667 121.763 13.2133 122.137 12.52C122.537 11.8267 122.923 11.2 123.297 10.64C123.59 10.2133 123.87 9.88 124.137 9.64C124.403 9.37333 124.697 9.24 125.017 9.24C125.497 9.24 125.737 9.42667 125.737 9.8C125.737 10.0133 125.643 10.3333 125.457 10.76C125.297 11.1867 124.99 11.7467 124.537 12.44C124.03 13.24 123.51 14.04 122.977 14.84C122.47 15.6133 122.03 16.4267 121.657 17.28C121.63 17.3867 121.563 17.56 121.457 17.8C121.377 18.0133 121.31 18.1467 121.257 18.2L122.057 18.08C122.27 18.0533 122.51 18.04 122.777 18.04C123.043 18.0133 123.337 18 123.657 18C124.11 18 124.537 18.0267 124.937 18.08C125.363 18.1067 125.71 18.1733 125.977 18.28C126.11 18.3333 126.23 18.4 126.337 18.48C126.47 18.5333 126.537 18.5867 126.537 18.64C126.537 18.7467 126.19 18.8 125.497 18.8C125.097 18.8 124.523 18.8667 123.777 19C123.057 19.1333 122.23 19.3467 121.297 19.64C120.843 19.7733 120.537 19.96 120.377 20.2C120.217 20.44 120.003 21.0133 119.737 21.92C119.337 23.36 119.017 24.7467 118.777 26.08C118.537 27.3867 118.35 28.72 118.217 30.08C118.19 30.3467 118.163 30.6267 118.137 30.92C118.137 31.2133 118.137 31.5333 118.137 31.88C118.137 32.7867 118.217 33.7333 118.377 34.72C118.563 35.7067 118.83 36.56 119.177 37.28C119.257 37.44 119.337 37.5867 119.417 37.72C119.523 37.8533 119.643 37.9467 119.777 38C119.963 38.08 120.057 38.1733 120.057 38.28C120.057 38.36 119.99 38.4 119.857 38.4Z" fill="white"/>
<path d="M12.0409 34.64C10.3609 34.64 8.78753 34.2933 7.32086 33.6C5.85419 32.9067 4.66753 31.7867 3.76086 30.24C2.88086 28.6933 2.44086 26.6533 2.44086 24.12C2.44086 23.56 2.45419 22.9867 2.48086 22.4C2.53419 21.7867 2.61419 21.16 2.72086 20.52C2.53419 20.4933 2.34753 20.4933 2.16086 20.52C1.97419 20.52 1.81419 20.52 1.68086 20.52C1.44086 20.52 1.25419 20.4667 1.12086 20.36C0.987526 20.2533 0.907526 20.0267 0.880859 19.68C0.880859 19.3067 0.960859 18.96 1.12086 18.64C1.30753 18.32 1.49419 18.2667 1.68086 18.48C1.97419 18.72 2.50753 18.8667 3.28086 18.92C3.81419 17.0533 4.61419 15.3333 5.68086 13.76C6.77419 12.1867 8.01419 10.7733 9.40086 9.52C10.8142 8.24 12.2675 7.16 13.7609 6.28C15.2809 5.37333 16.7342 4.69333 18.1209 4.24C19.5075 3.76 20.7342 3.52 21.8009 3.52C22.7075 3.52 23.4275 3.70667 23.9609 4.08C24.5209 4.45333 24.8009 5.04 24.8009 5.84C24.8009 6.18667 24.7475 6.53333 24.6409 6.88C24.4275 7.78667 24.0809 8.50667 23.6009 9.04C23.1475 9.57333 22.8142 9.84 22.6009 9.84C22.4675 9.84 22.4009 9.77333 22.4009 9.64C22.4009 9.50667 22.5075 9.22667 22.7209 8.8C23.1209 8.08 23.3209 7.45333 23.3209 6.92C23.3209 6.25333 23.0542 5.76 22.5209 5.44C21.9875 5.09333 21.2809 4.92 20.4009 4.92C19.2809 4.92 17.9875 5.2 16.5209 5.76C15.0542 6.32 13.5609 7.17333 12.0409 8.32C10.5209 9.44 9.12086 10.88 7.84086 12.64C6.58753 14.3733 5.61419 16.44 4.92086 18.84C5.42753 18.7867 5.94753 18.7333 6.48086 18.68C7.01419 18.6 7.49419 18.5067 7.92086 18.4C11.4409 17.6267 14.0942 17.08 15.8809 16.76C17.6942 16.4133 18.8275 16.24 19.2809 16.24C19.6809 16.24 19.6542 16.3333 19.2009 16.52C18.7475 16.7067 17.9742 16.9733 16.8809 17.32C15.8142 17.64 14.5075 18 12.9609 18.4C11.4142 18.7733 9.73419 19.16 7.92086 19.56C7.46753 19.6667 6.93419 19.8 6.32086 19.96C5.73419 20.12 5.13419 20.2667 4.52086 20.4C4.36086 21.5467 4.28086 22.6267 4.28086 23.64C4.28086 26.04 4.68086 27.9867 5.48086 29.48C6.28086 30.9467 7.33419 32.0133 8.64086 32.68C9.94753 33.3733 11.3609 33.72 12.8809 33.72C14.4275 33.72 15.9609 33.4133 17.4809 32.8C19.0275 32.1867 20.4275 31.3333 21.6809 30.24C22.9342 29.12 23.8809 27.8267 24.5209 26.36C24.7609 25.8533 24.9742 25.6 25.1609 25.6C25.2942 25.6 25.3609 25.7067 25.3609 25.92C25.3609 26.0533 25.3209 26.24 25.2409 26.48C24.8409 27.6533 24.1875 28.7467 23.2809 29.76C22.3742 30.7467 21.3075 31.6 20.0809 32.32C18.8542 33.0667 17.5475 33.64 16.1609 34.04C14.7742 34.44 13.4009 34.64 12.0409 34.64Z" fill="#1C1C1C"/>
<path d="M25.1596 31.68C24.6796 31.68 24.3329 31.48 24.1196 31.08C23.9063 30.6533 23.7996 30.16 23.7996 29.6C23.7996 28.88 23.9196 28.04 24.1596 27.08C24.4263 26.12 24.7729 25.1333 25.1996 24.12C25.6263 23.08 26.1063 22.1333 26.6396 21.28C27.1996 20.4 27.7863 19.6933 28.3996 19.16C29.0129 18.6 29.6129 18.32 30.1996 18.32C30.7329 18.32 31.1863 18.56 31.5596 19.04C31.9596 19.4933 32.1596 20.0133 32.1596 20.6C32.1596 20.9467 32.1063 21.24 31.9996 21.48C31.8929 21.6933 31.7729 21.8 31.6396 21.8C31.5329 21.8 31.4396 21.72 31.3596 21.56C31.0929 20.9467 30.7996 20.5067 30.4796 20.24C30.1863 19.9733 29.8796 19.84 29.5596 19.84C29.0263 19.84 28.4929 20.1467 27.9596 20.76C27.4529 21.3467 27.0396 22.0267 26.7196 22.8C26.4529 23.3867 26.1996 24.0933 25.9596 24.92C25.7463 25.72 25.5596 26.52 25.3996 27.32C25.2663 28.0933 25.1996 28.7333 25.1996 29.24C25.1996 30.1467 25.4129 30.6 25.8396 30.6C26.3729 30.6 27.0529 30.0133 27.8796 28.84C28.4929 27.9867 29.0396 27 29.5196 25.88C30.0263 24.76 30.4529 23.7867 30.7996 22.96C30.9329 22.6933 31.0796 22.52 31.2396 22.44C31.3996 22.36 31.5463 22.32 31.6796 22.32C31.9996 22.32 32.1996 22.4533 32.2796 22.72C32.3863 22.9867 32.4396 23.2133 32.4396 23.4C32.4396 24.0933 32.3729 24.72 32.2396 25.28C32.1063 25.8133 32.0396 26.4667 32.0396 27.24C32.0396 27.8 32.0796 28.32 32.1596 28.8C32.2663 29.2533 32.4396 29.48 32.6796 29.48C32.9729 29.48 33.3463 29.1067 33.7996 28.36C33.9063 28.1467 34.0663 28.04 34.2796 28.04C34.5196 28.04 34.6396 28.16 34.6396 28.4C34.6396 28.7467 34.3996 29.12 33.9196 29.52C33.4396 29.8933 32.9596 30.08 32.4796 30.08C31.8396 30.08 31.3863 29.8133 31.1196 29.28C30.6663 28.4 30.4396 27.6133 30.4396 26.92C30.4396 26.2 30.4263 25.7067 30.3996 25.44C30.2663 25.76 30.0129 26.2667 29.6396 26.96C29.2663 27.6267 28.8263 28.3333 28.3196 29.08C27.8129 29.8 27.2796 30.4133 26.7196 30.92C26.1596 31.4267 25.6396 31.68 25.1596 31.68Z" fill="#1C1C1C"/>
<path d="M35.1474 33.36C34.6408 33.36 34.2941 33.2133 34.1074 32.92C34.0008 32.76 33.9474 32.5867 33.9474 32.4C33.9474 32.1867 34.0408 31.9333 34.2274 31.64C34.4141 31.3467 34.7474 31.08 35.2274 30.84C35.2808 30.8133 35.4808 30.6933 35.8274 30.48C36.2008 30.2667 36.4274 30.1467 36.5074 30.12C36.3474 29.5333 36.0674 28.9467 35.6674 28.36C35.2674 27.7467 34.9074 27.0533 34.5874 26.28C34.2674 25.5067 34.1341 24.5467 34.1874 23.4C34.2408 22.3067 34.5341 21.36 35.0674 20.56C35.6008 19.76 36.2808 19.1067 37.1074 18.6C37.9608 18.0933 38.8408 17.7467 39.7474 17.56C39.9608 17.5067 40.1874 17.4667 40.4274 17.44C40.6674 17.4133 40.9074 17.4 41.1474 17.4C41.8141 17.4 42.4008 17.48 42.9074 17.64C43.4408 17.8 43.8941 18.0667 44.2674 18.44C44.6674 18.8133 44.8674 19.2267 44.8674 19.68C44.8674 19.9733 44.7741 20.2667 44.5874 20.56C44.5341 20.6667 44.4541 20.7733 44.3474 20.88C44.2408 20.9867 44.1074 21.04 43.9474 21.04C43.8408 21.04 43.7874 20.96 43.7874 20.8C43.7874 20.6667 43.8141 20.4933 43.8674 20.28C43.9474 20.0667 44.0008 19.9333 44.0274 19.88C44.0541 19.8267 44.0674 19.7333 44.0674 19.6C44.0674 19.3067 43.9874 19.0667 43.8274 18.88C43.6408 18.64 43.3474 18.4933 42.9474 18.44C42.5741 18.3867 42.2274 18.36 41.9074 18.36C40.9741 18.36 40.0541 18.6133 39.1474 19.12C38.2408 19.6267 37.4408 20.28 36.7474 21.08C36.0808 21.8533 35.6141 22.68 35.3474 23.56C35.2674 23.8 35.2141 24.04 35.1874 24.28C35.1608 24.4933 35.1474 24.7067 35.1474 24.92C35.1474 25.8533 35.3608 26.7467 35.7874 27.6C36.2141 28.4533 36.5874 29.24 36.9074 29.96C37.6541 29.56 38.3208 29.28 38.9074 29.12C38.9874 29.0933 39.0541 29.08 39.1074 29.08C39.1874 29.08 39.2408 29.08 39.2674 29.08C39.4008 29.08 39.4674 29.12 39.4674 29.2C39.4674 29.3333 39.2941 29.4667 38.9474 29.6C38.8674 29.6267 38.6674 29.7067 38.3474 29.84C38.0274 29.9733 37.6408 30.16 37.1874 30.4C37.3208 30.7467 37.3874 31.08 37.3874 31.4C37.3874 31.72 37.3074 32.0267 37.1474 32.32C36.9874 32.6133 36.7074 32.8533 36.3074 33.04C35.9074 33.2533 35.5208 33.36 35.1474 33.36ZM35.2674 32.28C35.2941 32.4667 35.4141 32.5067 35.6274 32.4C35.8674 32.2933 36.1074 32.1067 36.3474 31.84C36.5874 31.5733 36.7074 31.3067 36.7074 31.04C36.7074 30.9867 36.7074 30.9333 36.7074 30.88C36.7341 30.8 36.7341 30.72 36.7074 30.64C36.3074 30.88 35.9608 31.1467 35.6674 31.44C35.3741 31.7067 35.2408 31.9867 35.2674 32.28Z" fill="#1C1C1C"/>
<path d="M44.354 47.72C43.314 47.72 42.474 47.44 41.834 46.88C41.194 46.3467 40.874 45.6267 40.874 44.72C40.874 43.92 41.1007 43.12 41.554 42.32C41.9807 41.5467 42.514 40.8 43.154 40.08C43.8207 39.3867 44.4873 38.7733 45.154 38.24C46.3273 37.3067 47.714 36.4267 49.314 35.6C50.9407 34.7733 52.7673 34.1467 54.794 33.72C54.8207 33.4267 54.834 33.12 54.834 32.8C54.834 32.5067 54.834 32.2133 54.834 31.92C54.834 29.76 54.6873 27.8 54.394 26.04C54.1007 24.2533 53.7673 22.72 53.394 21.44C52.3273 24.08 51.3807 26.28 50.554 28.04C49.7273 29.7733 49.274 31.2267 49.194 32.4C49.1673 32.5867 49.0473 32.7867 48.834 33C48.6473 33.24 48.434 33.36 48.194 33.36C48.034 33.36 47.874 33.2667 47.714 33.08C47.5807 32.92 47.4873 32.6267 47.434 32.2C47.434 32.0933 47.4207 31.9467 47.394 31.76C47.394 31.5733 47.394 31.24 47.394 30.76C47.394 30.28 47.394 29.56 47.394 28.6C47.394 27.7467 47.3673 26.88 47.314 26C47.2873 25.0933 47.194 24.2533 47.034 23.48C46.874 22.7067 46.634 22.08 46.314 21.6C46.0207 21.12 45.6073 20.88 45.074 20.88C44.6473 20.88 44.2473 21.04 43.874 21.36C43.5273 21.68 43.234 22 42.994 22.32C42.754 22.6133 42.5673 22.76 42.434 22.76C42.3273 22.76 42.274 22.72 42.274 22.64C42.274 22.5867 42.314 22.5067 42.394 22.4C42.4473 22.2667 42.5007 22.16 42.554 22.08C42.794 21.7333 43.1007 21.3867 43.474 21.04C43.874 20.6933 44.2873 20.4 44.714 20.16C45.1673 19.8933 45.5673 19.76 45.914 19.76C46.634 19.76 47.194 20.1333 47.594 20.88C47.994 21.6 48.274 22.52 48.434 23.64C48.6206 24.76 48.714 25.9067 48.714 27.08C48.714 27.5867 48.6873 28.2 48.634 28.92C48.5807 29.64 48.514 30.2533 48.434 30.76C48.9673 29.7733 49.6473 28.4 50.474 26.64C51.3007 24.88 52.2073 22.8933 53.194 20.68L52.834 19.64V19.52C52.834 19.2533 52.914 19.0533 53.074 18.92C53.2607 18.7867 53.4473 18.72 53.634 18.72C53.794 18.72 53.954 18.76 54.114 18.84C54.274 18.92 54.3807 19.04 54.434 19.2C54.754 19.92 55.0207 20.9067 55.234 22.16C55.474 23.4133 55.6473 24.7733 55.754 26.24C55.8873 27.68 55.954 29.1067 55.954 30.52C55.954 31.5867 55.914 32.5867 55.834 33.52C56.5007 33.3867 57.2073 33.28 57.954 33.2C58.7273 33.12 59.394 33.08 59.954 33.08C60.3007 33.08 60.474 33.1333 60.474 33.24C60.474 33.4533 60.194 33.5867 59.634 33.64C58.994 33.6933 58.3407 33.76 57.674 33.84C57.034 33.9467 56.3807 34.08 55.714 34.24C55.154 37.3067 54.274 39.76 53.074 41.6C51.9007 43.4667 50.6873 44.8667 49.434 45.8C48.5273 46.4667 47.634 46.9467 46.754 47.24C45.9007 47.56 45.1007 47.72 44.354 47.72ZM44.034 46.88C44.4873 46.88 45.0073 46.7867 45.594 46.6C46.2073 46.4133 46.8473 46.12 47.514 45.72C49.6473 44.4667 51.3007 42.88 52.474 40.96C53.6473 39.0667 54.394 36.9067 54.714 34.48C53.1407 34.9067 51.554 35.52 49.954 36.32C48.3806 37.1467 46.9407 38.1067 45.634 39.2C45.0473 39.7067 44.4607 40.28 43.874 40.92C43.314 41.56 42.8473 42.2133 42.474 42.88C42.1007 43.5733 41.914 44.24 41.914 44.88C41.914 45.4933 42.1007 45.9733 42.474 46.32C42.8473 46.6933 43.3673 46.88 44.034 46.88Z" fill="#1C1C1C"/>
</svg>
