<svg width="167" height="51" viewBox="0 0 167 51" fill="none" xmlns="http://www.w3.org/2000/svg">
<path d="M73.9141 28.4922H79.2578V34.8906C78.6016 35.5781 77.7656 36.1641 76.75 36.6484C75.75 37.1172 74.6172 37.3516 73.3516 37.3516C72.2266 37.3516 71.1641 37.1562 70.1641 36.7656C69.1641 36.3594 68.2812 35.7969 67.5156 35.0781C66.75 34.3438 66.1484 33.4766 65.7109 32.4766C65.2734 31.4766 65.0547 30.3672 65.0547 29.1484C65.0547 27.9297 65.2734 26.8203 65.7109 25.8203C66.1484 24.8203 66.75 23.9609 67.5156 23.2422C68.2812 22.5078 69.1641 21.9453 70.1641 21.5547C71.1641 21.1484 72.2266 20.9453 73.3516 20.9453C74.3359 20.9453 75.1875 21.0859 75.9062 21.3672C76.625 21.6328 77.25 22 77.7812 22.4688V25.75C77.4062 25.4688 77.0156 25.1953 76.6094 24.9297C76.2031 24.6641 75.7422 24.4453 75.2266 24.2734C74.7266 24.1016 74.1328 24.0156 73.4453 24.0156C72.5078 24.0156 71.6562 24.2422 70.8906 24.6953C70.125 25.1484 69.5156 25.7578 69.0625 26.5234C68.6094 27.2891 68.3828 28.1641 68.3828 29.1484C68.3828 30.1172 68.6094 30.9922 69.0625 31.7734C69.5156 32.5391 70.125 33.1484 70.8906 33.6016C71.6562 34.0391 72.5078 34.2578 73.4453 34.2578C74.1641 34.2578 74.7422 34.1719 75.1797 34C75.6172 33.8281 75.9609 33.6406 76.2109 33.4375L76.2344 30.8359H73.9141V28.4922ZM89.7578 20.9453C90.8828 20.9453 91.9375 21.1484 92.9219 21.5547C93.9062 21.9453 94.7734 22.5078 95.5234 23.2422C96.2891 23.9609 96.8828 24.8203 97.3047 25.8203C97.7422 26.8203 97.9609 27.9297 97.9609 29.1484C97.9609 30.3672 97.7422 31.4766 97.3047 32.4766C96.8828 33.4766 96.2891 34.3438 95.5234 35.0781C94.7734 35.7969 93.9062 36.3594 92.9219 36.7656C91.9375 37.1562 90.8828 37.3516 89.7578 37.3516C88.6328 37.3516 87.5703 37.1562 86.5703 36.7656C85.5859 36.3594 84.7109 35.7969 83.9453 35.0781C83.1953 34.3438 82.6016 33.4766 82.1641 32.4766C81.7422 31.4766 81.5312 30.3672 81.5312 29.1484C81.5312 27.9297 81.7422 26.8203 82.1641 25.8203C82.6016 24.8203 83.1953 23.9609 83.9453 23.2422C84.7109 22.5078 85.5859 21.9453 86.5703 21.5547C87.5703 21.1484 88.6328 20.9453 89.7578 20.9453ZM89.7578 24.0156C88.8203 24.0156 87.9766 24.2422 87.2266 24.6953C86.4922 25.1484 85.9141 25.7578 85.4922 26.5234C85.0703 27.2891 84.8594 28.1641 84.8594 29.1484C84.8594 30.1172 85.0703 30.9922 85.4922 31.7734C85.9141 32.5391 86.4922 33.1484 87.2266 33.6016C87.9766 34.0391 88.8203 34.2578 89.7578 34.2578C90.6953 34.2578 91.5312 34.0391 92.2656 33.6016C93 33.1484 93.5781 32.5391 94 31.7734C94.4219 30.9922 94.6328 30.1172 94.6328 29.1484C94.6328 28.1641 94.4219 27.2891 94 26.5234C93.5781 25.7578 93 25.1484 92.2656 24.6953C91.5312 24.2422 90.6953 24.0156 89.7578 24.0156Z" fill="#F2EB56"/>
<path d="M111.555 27.6719V30.3203H104.617V34.1172H112.469V37H101.359V21.2969H112.469V24.1094H104.617V27.6719H111.555ZM123.508 21.1797L130.82 37H127L125.805 34.0703H119.594L118.398 37H114.578L121.891 21.1797H123.508ZM122.711 26.5L120.742 31.3047H124.68L122.711 26.5ZM137.688 20.9922C138.594 20.9922 139.422 21.1172 140.172 21.3672C140.922 21.6172 141.555 21.9062 142.07 22.2344V25.4453C141.508 25.1016 140.906 24.7812 140.266 24.4844C139.625 24.1875 138.898 24.0391 138.086 24.0391C137.68 24.0391 137.273 24.1016 136.867 24.2266C136.477 24.3516 136.148 24.5391 135.883 24.7891C135.633 25.0391 135.508 25.3594 135.508 25.75C135.508 26.2656 135.734 26.6562 136.188 26.9219C136.641 27.1875 137.195 27.4531 137.852 27.7188L139.773 28.5156C140.867 28.9844 141.672 29.5547 142.188 30.2266C142.703 30.8984 142.961 31.6641 142.961 32.5234C142.961 33.4609 142.688 34.2891 142.141 35.0078C141.609 35.7109 140.891 36.2656 139.984 36.6719C139.094 37.0781 138.102 37.2812 137.008 37.2812C136.086 37.2812 135.203 37.125 134.359 36.8125C133.516 36.5 132.781 36.1172 132.156 35.6641V32.4531C132.844 32.9531 133.602 33.375 134.43 33.7188C135.258 34.0625 136.141 34.2344 137.078 34.2344C137.734 34.2344 138.297 34.1094 138.766 33.8594C139.234 33.5938 139.469 33.2031 139.469 32.6875C139.469 32.2812 139.273 31.9531 138.883 31.7031C138.508 31.4375 138.094 31.2188 137.641 31.0469L135.227 30.1094C134.008 29.6406 133.18 29.0312 132.742 28.2812C132.32 27.5156 132.109 26.6719 132.109 25.75C132.109 24.7969 132.367 23.9688 132.883 23.2656C133.414 22.5469 134.102 21.9922 134.945 21.6016C135.789 21.1953 136.703 20.9922 137.688 20.9922ZM159.625 21.2969L153.555 31.0703V37H150.227V31.2344L144.133 21.2969H147.953L151.867 27.9062L155.805 21.2969H159.625Z" fill="white"/>
<g clip-path="url(#clip0_103_3)">
<path d="M0 17.0672C0 14.7148 0.443909 12.5065 1.33327 10.4394C2.22109 8.37388 3.43063 6.56419 4.95878 5.01502C6.48694 3.4643 8.29197 2.24389 10.3708 1.35378C12.448 0.462115 14.6614 0.0170593 17.0077 0.0170593C18.7076 0.0170593 26.8789 0.00620432 31.2453 1.45403e-06C32.7704 -0.00154926 34.0046 1.23747 34 2.76648C33.9861 7.14881 33.9613 15.3614 33.9613 17.0672C33.9613 19.4181 33.5159 21.6294 32.6281 23.695C31.7387 25.7621 30.5292 27.5702 29.0025 29.1209C27.4744 30.6716 25.6786 31.8921 23.6184 32.7822C21.5566 33.6738 19.3526 34.1189 17.0077 34.1189C14.6629 34.1189 12.4495 33.6738 10.3708 32.7822C8.29197 31.8921 6.48694 30.6716 4.95878 29.1209C3.43063 27.5702 2.22109 25.7621 1.33327 23.695C0.443909 21.6294 0 19.4196 0 17.0672ZM7.03758 17.0672C7.03758 18.4566 7.29433 19.7577 7.81094 20.9688C8.32599 22.1815 9.03749 23.2406 9.94386 24.1493C10.8502 25.058 11.9082 25.7714 13.1162 26.2878C14.3242 26.8042 15.6219 27.0631 17.0093 27.0631C18.3967 27.0631 19.6836 26.8042 20.8745 26.2878C22.064 25.7714 23.1126 25.058 24.0206 24.1493C24.9269 23.2406 25.6384 22.1815 26.1535 20.9688C26.6685 19.7577 26.9268 18.4566 26.9268 17.0672C26.9268 15.6778 26.6685 14.386 26.1535 13.192C25.6384 11.9979 24.9269 10.9465 24.0206 10.0378C23.1142 9.12908 22.0655 8.4173 20.8745 7.89936C19.6836 7.38297 18.3951 7.124 17.0093 7.124C15.6234 7.124 14.3242 7.38297 13.1162 7.89936C11.9082 8.4173 10.8502 9.12908 9.94386 10.0378C9.03749 10.9465 8.32599 11.9979 7.81094 13.192C7.29588 14.386 7.03758 15.6778 7.03758 17.0672Z" fill="white"/>
<path d="M30.4505 35.9193C28.7398 35.2695 26.876 36.1286 26.1645 37.8189C26.1599 37.8298 26.1552 37.8406 26.1506 37.8515C25.6355 39.0641 24.924 40.1233 24.0177 41.032C23.1113 41.9407 22.0626 42.654 20.8716 43.1704C19.6807 43.6868 18.3922 43.9458 17.0064 43.9458C15.6205 43.9458 14.3213 43.6868 13.1133 43.1704C11.9053 42.654 10.8473 41.9407 9.94096 41.032C9.03458 40.1233 8.32309 39.0641 7.80803 37.8515C7.77246 37.7662 7.73689 37.6824 7.7044 37.5956C7.11665 36.0837 5.539 35.209 3.95206 35.53C3.82214 35.5564 3.69067 35.5828 3.56074 35.6091C1.52835 36.0247 0.380685 38.1849 1.14167 40.1202C1.20199 40.2737 1.26386 40.4257 1.32882 40.5761C2.21664 42.6432 3.42618 44.4513 4.95434 46.002C6.4825 47.5528 8.28752 48.7732 10.3663 49.6633C12.4451 50.5549 14.6569 51 17.0033 51C19.3497 51 21.5522 50.5549 23.614 49.6633C25.6742 48.7732 27.4699 47.5528 28.9981 46.002C30.5263 44.4513 31.7342 42.6432 32.6236 40.5761C32.6484 40.5187 32.6731 40.4598 32.6979 40.4024C33.4217 38.6594 32.4999 36.6838 30.7335 36.0263C30.6376 35.9906 30.5417 35.9549 30.4443 35.9177L30.4505 35.9193Z" fill="white"/>
<path d="M16.9769 24.3819C21.0661 24.3819 24.3811 21.0584 24.3811 16.9587C24.3811 12.8589 21.0661 9.53537 16.9769 9.53537C12.8877 9.53537 9.57275 12.8589 9.57275 16.9587C9.57275 21.0584 12.8877 24.3819 16.9769 24.3819Z" fill="#F2EB56"/>
</g>
<defs>
<clipPath id="clip0_103_3">
<rect width="34" height="51" fill="white"/>
</clipPath>
</defs>
</svg>
